<?xml version="1.0" ?><!DOCTYPE svg  PUBLIC '-//W3C//DTD SVG 1.1//EN'  'http://www.w3.org/Graphics/SVG/1.1/DTD/svg11.dtd'><svg enable-background="new 0 0 75 75" height="75px" version="1.1" viewBox="0 0 75 75" width="75px" xml:space="preserve" xmlns="http://www.w3.org/2000/svg" xmlns:xlink="http://www.w3.org/1999/xlink"><g id="Layer_1"><g><g><g><g><g><path d="M37.556,16.856c3.913,3.914,3.913,10.26,0,14.176l-6.523,6.523        c-3.914,3.912-10.261,3.912-14.169-0.006l0,0c-3.918-3.908-3.918-10.254-0.006-14.172l6.524-6.521        C27.3,12.946,33.648,12.944,37.556,16.856L37.556,16.856z" fill="#1BC1A9"/></g><g><g><path d="M6.357,37.577l10.479,10.479c2.898-2.893,2.894-7.586,0-10.479         C13.938,34.683,9.25,34.683,6.357,37.577z" fill="#1BC1A9"/></g><g><path d="M48.068,16.831L37.583,6.354c-2.898,2.891-2.898,7.588,0,10.477         C40.476,19.735,45.169,19.729,48.068,16.831z" fill="#1BC1A9"/></g></g></g><g><g><polyline fill="#AEDCFF" points="18.69,38.14 18.685,33.321 23.505,33.321       "/></g><g><polyline fill="#AEDCFF" points="23.563,33.267 23.569,28.437 28.385,28.442       "/></g><g><polyline fill="#AEDCFF" points="28.443,28.384 28.443,23.563 33.263,23.563       "/></g><g><polyline fill="#AEDCFF" points="33.324,23.505 33.324,18.681 38.149,18.681       "/></g></g></g><g><g><g><path d="M58.136,37.442c3.919,3.908,3.913,10.262,0.007,14.174l-6.525,6.52c-3.918,3.918-10.26,3.916-14.174,0        l0,0c-3.913-3.908-3.913-10.25,0-14.17l6.524-6.523C47.881,33.524,54.229,33.524,58.136,37.442L58.136,37.442z" fill="#EAB818"/></g><g><g><path d="M26.937,58.163l10.485,10.482c2.895-2.891,2.895-7.59-0.005-10.482         C34.53,55.269,29.831,55.269,26.937,58.163z" fill="#EAB818"/></g><g><path d="M68.643,37.421l-10.48-10.484c-2.893,2.895-2.893,7.586,0,10.48         C61.056,40.321,65.75,40.315,68.643,37.421z" fill="#EAB818"/></g></g></g><g><g><path d="M25.476,18.95l-6.524,6.521c-3.556,3.561-3.868,9.121-0.957,13.041c3.92,2.912,9.48,2.6,13.038-0.957        l6.523-6.523c3.557-3.561,3.869-9.121,0.96-13.045C34.596,15.083,29.037,15.397,25.476,18.95z" fill="#109BAD"/></g><g><g><polygon fill="#FFFDE1" points="15.545,37.023 15.539,30.573 21.991,30.573 21.991,32.073 17.041,32.073 17.045,37.021                 "/></g><g><polygon fill="#FFFDE1" points="22.048,32.018 20.548,32.016 20.556,25.555 27.003,25.562 27.001,27.062 22.054,27.057                 "/></g><g><polygon fill="#FFFDE1" points="27.061,27.001 25.561,27.001 25.561,20.55 32.012,20.55 32.012,22.05 27.061,22.05                 "/></g><g><polygon fill="#FFFDE1" points="32.075,21.989 30.575,21.989 30.575,15.536 37.031,15.536 37.031,17.036 32.075,17.036                 "/></g></g><g><g><polygon fill="#FFFDE1" points="18.316,39.795 18.309,33.345 24.761,33.345 24.761,34.845 19.811,34.845 19.816,39.793                 "/></g><g><polygon fill="#FFFDE1" points="24.819,34.789 23.319,34.787 23.327,28.326 29.774,28.334 29.772,29.834 24.825,29.828                 "/></g><g><polygon fill="#FFFDE1" points="29.832,29.772 28.332,29.772 28.332,23.321 34.783,23.321 34.783,24.821 29.832,24.821                 "/></g><g><polygon fill="#FFFDE1" points="34.845,24.761 33.345,24.761 33.345,18.308 39.801,18.308 39.801,19.808 34.845,19.808                 "/></g></g><g><g><path d="M17.78,38.731c-2.879-1.91-6.793-1.598-9.329,0.939l8.386,8.385         C19.375,45.522,19.686,41.608,17.78,38.731z" fill="#109BAD"/></g><g><path d="M38.734,17.776c2.877,1.912,6.794,1.594,9.333-0.945l-8.391-8.383         C37.136,10.979,36.823,14.901,38.734,17.776z" fill="#109BAD"/></g></g></g><g><g><path d="M46.062,39.536l-6.524,6.523c-3.556,3.562-3.869,9.119-0.962,13.037        c3.923,2.912,9.48,2.602,13.042-0.961l6.525-6.52c3.551-3.557,3.867-9.123,0.955-13.043        C55.179,35.661,49.619,35.976,46.062,39.536z" fill="#F26606"/></g><g><rect fill="#FFFDE1" height="1.5" transform="matrix(0.707 0.7072 -0.7072 0.707 50.7707 -13.1187)" width="18.373" x="32.03" y="53.96"/></g><g><rect fill="#FFFDE1" height="1.5" transform="matrix(0.707 0.7072 -0.7072 0.707 49.0155 -17.6649)" width="20.731" x="35.463" y="49.576"/></g><g><rect fill="#FFFDE1" height="1.5" transform="matrix(0.7072 0.7071 -0.7071 0.7072 47.1388 -22.1635)" width="20.737" x="39.957" y="45.075"/></g><g><rect fill="#FFFDE1" height="1.5" transform="matrix(0.707 0.7072 -0.7072 0.707 45.1685 -26.6145)" width="18.055" x="45.674" y="40.451"/></g><g><g><path d="M29.031,60.255l8.392,8.391c2.536-2.533,2.85-6.453,0.938-9.332         C35.487,57.407,31.566,57.722,29.031,60.255z" fill="#F26606"/></g><g><path d="M59.321,38.366c2.877,1.908,6.79,1.588,9.322-0.945l-8.387-8.391         C57.72,31.567,57.409,35.487,59.321,38.366z" fill="#F26606"/></g></g></g><g><g><line fill="#AEDCFF" x1="35.806" x2="46.285" y1="49.298" y2="59.78"/></g><g><line fill="#AEDCFF" x1="39.03" x2="52.626" y1="43.526" y2="57.126"/></g><g><line fill="#AEDCFF" x1="43.524" x2="57.127" y1="39.024" y2="52.626"/></g><g><line fill="#AEDCFF" x1="49.302" x2="59.782" y1="35.8" y2="46.284"/></g></g></g></g><g><g><g><g><path d="M23.949,41.239c-2.879,0-5.583-1.123-7.616-3.16c-2.036-2.03-3.158-4.734-3.159-7.612        c0-2.877,1.119-5.583,3.153-7.62l6.525-6.522c2.038-2.034,4.744-3.153,7.622-3.153c2.878,0,5.582,1.12,7.613,3.153        c4.198,4.2,4.198,11.035,0,15.236l-6.524,6.523C29.529,40.119,26.825,41.239,23.949,41.239z M30.474,14.673        c-2.478,0-4.808,0.964-6.562,2.714l-6.524,6.521c-1.75,1.753-2.714,4.083-2.714,6.559c0.001,2.477,0.966,4.803,2.719,6.552        c1.75,1.754,4.078,2.72,6.555,2.72c2.476,0,4.803-0.964,6.554-2.714l6.523-6.523c3.614-3.617,3.614-9.5,0-13.115        C35.277,15.637,32.951,14.673,30.474,14.673z" fill="#093260"/></g><g><g><path d="M16.836,48.806c-0.192,0-0.384-0.073-0.53-0.22L5.827,38.107c-0.293-0.293-0.293-0.768,0-1.061         c1.541-1.542,3.589-2.391,5.768-2.391s4.228,0.849,5.771,2.39c1.544,1.543,2.393,3.594,2.392,5.776         c-0.001,2.179-0.851,4.226-2.392,5.764C17.22,48.732,17.028,48.806,16.836,48.806z M7.447,37.606l9.361,9.36         c0.939-1.173,1.45-2.619,1.451-4.145c0.001-1.781-0.692-3.455-1.952-4.714c-1.26-1.258-2.933-1.951-4.711-1.951         C10.069,36.156,8.622,36.667,7.447,37.606z" fill="#093260"/></g><g><path d="M42.821,19.757C42.821,19.757,42.821,19.757,42.821,19.757c-2.182,0-4.23-0.852-5.77-2.397         c-1.542-1.537-2.392-3.585-2.393-5.766c0-2.182,0.85-4.231,2.394-5.771c0.293-0.292,0.768-0.291,1.06,0L48.598,16.3         c0.141,0.141,0.22,0.332,0.22,0.531c0,0.199-0.079,0.39-0.22,0.53C47.053,18.906,45.001,19.757,42.821,19.757z M37.611,7.443         c-0.942,1.175-1.453,2.623-1.453,4.151c0,1.779,0.694,3.45,1.953,4.705c1.258,1.263,2.93,1.957,4.708,1.958c0,0,0,0,0.001,0         c1.528,0,2.978-0.512,4.156-1.455L37.611,7.443z" fill="#093260"/></g></g></g></g><g><g><g><path d="M44.53,61.824c-2.876,0-5.582-1.122-7.617-3.158c-4.198-4.192-4.198-11.025,0-15.23l6.525-6.524        c2.034-2.037,4.739-3.158,7.617-3.158c2.877,0,5.581,1.122,7.613,3.159c2.035,2.03,3.156,4.734,3.157,7.615        c0,2.878-1.119,5.583-3.15,7.618l-6.526,6.521C50.112,60.702,47.407,61.824,44.53,61.824z M51.055,35.254        c-2.477,0-4.805,0.965-6.556,2.718l-6.525,6.524c-3.613,3.62-3.613,9.5,0,13.109c1.752,1.753,4.081,2.719,6.557,2.719        c2.476,0,4.804-0.965,6.557-2.718l6.525-6.52c1.749-1.75,2.711-4.08,2.711-6.558c0-2.479-0.965-4.807-2.718-6.554        C55.857,36.219,53.531,35.254,51.055,35.254z" fill="#093260"/></g><g><g><path d="M37.422,69.396c-0.192,0-0.384-0.073-0.53-0.22L26.407,58.693c-0.293-0.292-0.293-0.768,0-1.061         c1.541-1.542,3.591-2.391,5.772-2.391c2.182,0,4.231,0.849,5.769,2.391c1.543,1.54,2.394,3.59,2.395,5.772         c0,2.182-0.849,4.231-2.391,5.771C37.806,69.322,37.614,69.396,37.422,69.396z M28.027,58.192l9.366,9.364         c0.94-1.174,1.45-2.623,1.45-4.15c0-1.781-0.695-3.455-1.955-4.712c-1.256-1.259-2.928-1.952-4.708-1.952         C30.651,56.742,29.202,57.252,28.027,58.192z" fill="#093260"/></g><g><path d="M63.403,40.344C63.402,40.344,63.402,40.344,63.403,40.344c-2.182,0-4.231-0.852-5.771-2.397         c-3.179-3.181-3.179-8.358,0.001-11.54c0.28-0.281,0.778-0.282,1.061,0l10.48,10.484c0.293,0.293,0.293,0.768,0,1.061         C67.632,39.494,65.582,40.344,63.403,40.344z M58.192,28.027c-2.082,2.613-1.916,6.442,0.5,8.859         c1.257,1.262,2.93,1.957,4.709,1.957c0,0,0,0,0,0c1.526,0,2.975-0.511,4.15-1.452L58.192,28.027z" fill="#093260"/></g></g></g><g><g><path d="M35.252,48.743" fill="none" stroke="#FFFDE1" stroke-linecap="square" stroke-miterlimit="10" stroke-width="1.5"/></g><g><path d="M52.626,57.126" fill="none" stroke="#FFFDE1" stroke-linecap="square" stroke-miterlimit="10" stroke-width="1.5"/></g><g><path d="M39.03,43.526" fill="none" stroke="#FFFDE1" stroke-linecap="square" stroke-miterlimit="10" stroke-width="1.5"/></g><g><path d="M57.127,52.626" fill="none" stroke="#FFFDE1" stroke-linecap="square" stroke-miterlimit="10" stroke-width="1.5"/></g><g><path d="M43.524,39.024" fill="none" stroke="#FFFDE1" stroke-linecap="square" stroke-miterlimit="10" stroke-width="1.5"/></g><g><path d="M60.554,47.056" fill="none" stroke="#FFFDE1" stroke-linecap="square" stroke-miterlimit="10" stroke-width="1.5"/></g><g><path d="M48.85,35.347" fill="none" stroke="#FFFDE1" stroke-linecap="square" stroke-miterlimit="10" stroke-width="1.5"/></g></g></g></g></g></g></svg>